<svg width="675" height="108" viewBox="0 0 675 108" fill="none" xmlns="http://www.w3.org/2000/svg">
<rect width="675" height="108" fill="#A1FF00"/>
<path d="M137.168 45.7559C136.875 42.9727 134.629 41.3125 131.064 41.3125C127.354 41.3125 125.303 43.0215 125.254 45.3652C125.205 47.9043 127.891 49.0762 130.918 49.7598L134.092 50.541C140.146 51.9082 144.688 54.9844 144.688 60.8926C144.688 67.3867 139.609 71.4883 131.016 71.4883C122.471 71.4883 117.002 67.5332 116.807 59.9648H123.936C124.18 63.5293 127.012 65.3359 130.918 65.3359C134.775 65.3359 137.266 63.5293 137.266 60.8926C137.266 58.5 135.068 57.377 131.211 56.4004L127.354 55.4727C121.396 54.0078 117.734 51.0293 117.734 45.8535C117.734 39.4082 123.398 35.1602 131.113 35.1602C138.926 35.1602 144.102 39.5059 144.199 45.7559H137.168ZM149.473 71V35.6484H163.34C171.396 35.6484 175.986 40.5801 175.986 47.5625C175.986 54.6426 171.299 59.4766 163.145 59.4766H156.797V71H149.473ZM156.797 53.5684H161.973C166.318 53.5684 168.418 51.127 168.418 47.5625C168.418 44.0469 166.318 41.6543 161.973 41.6543H156.797V53.5684ZM180.625 71V35.6484H187.949V64.9453H203.184V71H180.625ZM214.756 71H206.846L219.102 35.6484H228.525L240.732 71H232.871L230.234 62.8457H217.441L214.756 71ZM219.297 57.1328H228.379L223.936 43.6074H223.691L219.297 57.1328ZM263.096 45.7559C262.803 42.9727 260.557 41.3125 256.992 41.3125C253.281 41.3125 251.23 43.0215 251.182 45.3652C251.133 47.9043 253.818 49.0762 256.846 49.7598L260.02 50.541C266.074 51.9082 270.615 54.9844 270.615 60.8926C270.615 67.3867 265.537 71.4883 256.943 71.4883C248.398 71.4883 242.93 67.5332 242.734 59.9648H249.863C250.107 63.5293 252.939 65.3359 256.846 65.3359C260.703 65.3359 263.193 63.5293 263.193 60.8926C263.193 58.5 260.996 57.377 257.139 56.4004L253.281 55.4727C247.324 54.0078 243.662 51.0293 243.662 45.8535C243.662 39.4082 249.326 35.1602 257.041 35.1602C264.854 35.1602 270.029 39.5059 270.127 45.7559H263.096ZM275.4 71V35.6484H282.725V50.2969H298.057V35.6484H305.43V71H298.057V56.3516H282.725V71H275.4Z" fill="black"/>
<path d="M473.168 45.7559C472.875 42.9727 470.629 41.3125 467.064 41.3125C463.354 41.3125 461.303 43.0215 461.254 45.3652C461.205 47.9043 463.891 49.0762 466.918 49.7598L470.092 50.541C476.146 51.9082 480.688 54.9844 480.688 60.8926C480.688 67.3867 475.609 71.4883 467.016 71.4883C458.471 71.4883 453.002 67.5332 452.807 59.9648H459.936C460.18 63.5293 463.012 65.3359 466.918 65.3359C470.775 65.3359 473.266 63.5293 473.266 60.8926C473.266 58.5 471.068 57.377 467.211 56.4004L463.354 55.4727C457.396 54.0078 453.734 51.0293 453.734 45.8535C453.734 39.4082 459.398 35.1602 467.113 35.1602C474.926 35.1602 480.102 39.5059 480.199 45.7559H473.168ZM485.473 71V35.6484H499.34C507.396 35.6484 511.986 40.5801 511.986 47.5625C511.986 54.6426 507.299 59.4766 499.145 59.4766H492.797V71H485.473ZM492.797 53.5684H497.973C502.318 53.5684 504.418 51.127 504.418 47.5625C504.418 44.0469 502.318 41.6543 497.973 41.6543H492.797V53.5684ZM516.625 71V35.6484H523.949V64.9453H539.184V71H516.625ZM550.756 71H542.846L555.102 35.6484H564.525L576.732 71H568.871L566.234 62.8457H553.441L550.756 71ZM555.297 57.1328H564.379L559.936 43.6074H559.691L555.297 57.1328ZM599.096 45.7559C598.803 42.9727 596.557 41.3125 592.992 41.3125C589.281 41.3125 587.23 43.0215 587.182 45.3652C587.133 47.9043 589.818 49.0762 592.846 49.7598L596.02 50.541C602.074 51.9082 606.615 54.9844 606.615 60.8926C606.615 67.3867 601.537 71.4883 592.943 71.4883C584.398 71.4883 578.93 67.5332 578.734 59.9648H585.863C586.107 63.5293 588.939 65.3359 592.846 65.3359C596.703 65.3359 599.193 63.5293 599.193 60.8926C599.193 58.5 596.996 57.377 593.139 56.4004L589.281 55.4727C583.324 54.0078 579.662 51.0293 579.662 45.8535C579.662 39.4082 585.326 35.1602 593.041 35.1602C600.854 35.1602 606.029 39.5059 606.127 45.7559H599.096ZM611.4 71V35.6484H618.725V50.2969H634.057V35.6484H641.43V71H634.057V56.3516H618.725V71H611.4Z" fill="black"/>
<path d="M389.389 62.7766C388.706 62.5936 388.196 62.1903 387.859 61.5669C387.524 60.9426 387.448 60.289 387.631 59.606L390.216 49.9584L366.075 63.8959C365.462 64.2501 364.827 64.3393 364.172 64.1636C363.518 63.9886 363.014 63.5943 362.66 62.9809C362.306 62.3674 362.216 61.7333 362.39 61.0784C362.567 60.4242 362.962 59.92 363.575 59.5658L387.716 45.6283L377.983 43.0204C377.3 42.8374 376.786 42.4478 376.442 41.8517C376.099 41.257 376.018 40.6182 376.201 39.9352C376.385 39.2522 376.774 38.7386 377.37 38.3944C377.965 38.0511 378.604 37.9709 379.287 38.1539L394.911 42.3403C395.252 42.4318 395.541 42.5776 395.778 42.7777C396.013 42.9786 396.214 43.2234 396.381 43.5121C396.548 43.8008 396.659 44.0973 396.716 44.4015C396.77 44.7066 396.752 45.0299 396.661 45.3714L392.451 61.0807C392.284 61.7068 391.902 62.1915 391.308 62.5349C390.712 62.879 390.072 62.9596 389.389 62.7766Z" fill="black"/>
<path d="M35.3996 65.0495C35.3996 64.3423 35.6571 63.7454 36.1721 63.2587C36.6883 62.7732 37.3 62.5304 38.0071 62.5304L47.9949 62.5304L28.2843 42.8198C27.7835 42.3189 27.533 41.7291 27.533 41.0503C27.533 40.3738 27.7835 39.7851 28.2843 39.2843C28.7852 38.7834 29.3745 38.5324 30.0521 38.5312C30.7298 38.5324 31.319 38.7834 31.8199 39.2843L51.5305 58.9949L51.5305 48.9186C51.5305 48.2115 51.7738 47.6146 52.2606 47.1278C52.7461 46.6423 53.3424 46.3995 54.0496 46.3995C54.7567 46.3995 55.3536 46.6429 55.8403 47.1296C56.3258 47.6151 56.5686 48.2115 56.5686 48.9186L56.5686 65.0936C56.5686 65.4472 56.5026 65.7642 56.3706 66.0447C56.2375 66.324 56.053 66.5815 55.8173 66.8172C55.5816 67.0529 55.3241 67.2374 55.0448 67.3705C54.7643 67.5025 54.4473 67.5685 54.0937 67.5685L37.8303 67.5685C37.1821 67.5685 36.6152 67.3258 36.1297 66.8402C35.643 66.3535 35.3996 65.7566 35.3996 65.0495Z" fill="black"/>
</svg>
