<svg width="184" height="46" viewBox="0 0 184 46" fill="none" xmlns="http://www.w3.org/2000/svg">
<rect x="5" y="5" width="174" height="36" stroke="white" stroke-width="10"/>
<path d="M22.5566 32L17.7725 15.7383H22.5342L24.8252 25.9131H24.96L27.6328 15.7383H31.4062L34.1016 25.958H34.2363L36.5273 15.7383H41.2891L36.5049 32H32.3945L29.5869 22.7012H29.4521L26.6445 32H22.5566ZM44.8828 32H40.2559L45.6689 15.7383H51.4863L56.877 32H52.2725L51.3066 28.8105H45.8486L44.8828 32ZM46.8369 25.5762H50.3184L48.6338 20.1182H48.499L46.8369 25.5762ZM55.9561 19.1973V15.7383H69.9717V19.1973H65.0752V32H60.8525V19.1973H55.9561ZM71.7012 32V15.7383H83.3135V19.1973H75.9688V22.1396H82.707V25.5986H75.9688V28.541H83.291V32H71.7012ZM85.5596 32V15.7383H92.4775C96.1162 15.7383 98.4971 17.8047 98.4971 21.2412C98.4971 23.4873 97.4639 25.082 95.7119 25.9131L99.0361 32H94.3867L91.5117 26.5869H89.8271V32H85.5596ZM89.8271 23.2402H91.4893C93.1064 23.2402 94.0273 22.6562 94.0273 21.2412C94.0273 19.8037 93.1064 19.1523 91.4893 19.1523H89.8271V23.2402ZM100.429 32V15.7383H107.392C111.098 15.7383 113.052 17.333 113.052 19.8262C113.052 21.623 111.771 22.9932 109.93 23.375V23.5322C111.974 23.5996 113.681 25.1045 113.681 27.418C113.681 30.0684 111.524 32 107.976 32H100.429ZM106.875 28.5635C108.402 28.5635 109.166 27.9795 109.166 26.8789C109.166 25.6885 108.312 25.0146 106.942 25.0146H104.696V28.5635H106.875ZM106.605 22.3418C107.796 22.3418 108.649 21.7578 108.649 20.7246C108.649 19.6914 107.841 19.1074 106.673 19.1074H104.696V22.3418H106.605ZM130.953 23.8691C130.953 29.2822 127.494 32.2246 123.092 32.2246C118.645 32.2246 115.208 29.2598 115.208 23.8691C115.208 18.4561 118.645 15.5137 123.092 15.5137C127.494 15.5137 130.953 18.4561 130.953 23.8691ZM126.551 23.8691C126.551 20.8818 125.315 19.2422 123.092 19.2422C120.846 19.2422 119.61 20.8818 119.61 23.8691C119.61 26.8564 120.846 28.4961 123.092 28.4961C125.315 28.4961 126.551 26.8564 126.551 23.8691ZM133.042 15.7383H138.365L142.229 25.1943H142.431L146.294 15.7383H151.617V32H147.439V22.4316H147.305L143.599 31.8877H141.038L137.354 22.3643H137.22V32H133.042V15.7383ZM153.818 32V15.7383H160.781C164.487 15.7383 166.441 17.333 166.441 19.8262C166.441 21.623 165.161 22.9932 163.319 23.375V23.5322C165.363 23.5996 167.07 25.1045 167.07 27.418C167.07 30.0684 164.914 32 161.365 32H153.818ZM160.265 28.5635C161.792 28.5635 162.556 27.9795 162.556 26.8789C162.556 25.6885 161.702 25.0146 160.332 25.0146H158.086V28.5635H160.265ZM159.995 22.3418C161.186 22.3418 162.039 21.7578 162.039 20.7246C162.039 19.6914 161.23 19.1074 160.062 19.1074H158.086V22.3418H159.995Z" fill="white"/>
</svg>
