<svg width="637" height="85" viewBox="0 0 637 85" fill="none" xmlns="http://www.w3.org/2000/svg">
<rect y="2" width="637" height="80" fill="#A1FF00"/>
<path d="M142.734 35.8047C142.5 33.5781 140.703 32.25 137.852 32.25C134.883 32.25 133.242 33.6172 133.203 35.4922C133.164 37.5234 135.312 38.4609 137.734 39.0078L140.273 39.6328C145.117 40.7266 148.75 43.1875 148.75 47.9141C148.75 53.1094 144.688 56.3906 137.812 56.3906C130.977 56.3906 126.602 53.2266 126.445 47.1719H132.148C132.344 50.0234 134.609 51.4688 137.734 51.4688C140.82 51.4688 142.812 50.0234 142.812 47.9141C142.812 46 141.055 45.1016 137.969 44.3203L134.883 43.5781C130.117 42.4062 127.188 40.0234 127.188 35.8828C127.188 30.7266 131.719 27.3281 137.891 27.3281C144.141 27.3281 148.281 30.8047 148.359 35.8047H142.734ZM152.578 56V27.7188H163.672C170.117 27.7188 173.789 31.6641 173.789 37.25C173.789 42.9141 170.039 46.7812 163.516 46.7812H158.438V56H152.578ZM158.438 42.0547H162.578C166.055 42.0547 167.734 40.1016 167.734 37.25C167.734 34.4375 166.055 32.5234 162.578 32.5234H158.438V42.0547ZM177.5 56V27.7188H183.359V51.1562H195.547V56H177.5ZM204.805 56H198.477L208.281 27.7188H215.82L225.586 56H219.297L217.188 49.4766H206.953L204.805 56ZM208.438 44.9062H215.703L212.148 34.0859H211.953L208.438 44.9062ZM243.477 35.8047C243.242 33.5781 241.445 32.25 238.594 32.25C235.625 32.25 233.984 33.6172 233.945 35.4922C233.906 37.5234 236.055 38.4609 238.477 39.0078L241.016 39.6328C245.859 40.7266 249.492 43.1875 249.492 47.9141C249.492 53.1094 245.43 56.3906 238.555 56.3906C231.719 56.3906 227.344 53.2266 227.188 47.1719H232.891C233.086 50.0234 235.352 51.4688 238.477 51.4688C241.562 51.4688 243.555 50.0234 243.555 47.9141C243.555 46 241.797 45.1016 238.711 44.3203L235.625 43.5781C230.859 42.4062 227.93 40.0234 227.93 35.8828C227.93 30.7266 232.461 27.3281 238.633 27.3281C244.883 27.3281 249.023 30.8047 249.102 35.8047H243.477ZM253.32 56V27.7188H259.18V39.4375H271.445V27.7188H277.344V56H271.445V44.2812H259.18V56H253.32Z" fill="black"/>
<path d="M459.734 35.8047C459.5 33.5781 457.703 32.25 454.852 32.25C451.883 32.25 450.242 33.6172 450.203 35.4922C450.164 37.5234 452.312 38.4609 454.734 39.0078L457.273 39.6328C462.117 40.7266 465.75 43.1875 465.75 47.9141C465.75 53.1094 461.688 56.3906 454.812 56.3906C447.977 56.3906 443.602 53.2266 443.445 47.1719H449.148C449.344 50.0234 451.609 51.4688 454.734 51.4688C457.82 51.4688 459.812 50.0234 459.812 47.9141C459.812 46 458.055 45.1016 454.969 44.3203L451.883 43.5781C447.117 42.4062 444.188 40.0234 444.188 35.8828C444.188 30.7266 448.719 27.3281 454.891 27.3281C461.141 27.3281 465.281 30.8047 465.359 35.8047H459.734ZM469.578 56V27.7188H480.672C487.117 27.7188 490.789 31.6641 490.789 37.25C490.789 42.9141 487.039 46.7812 480.516 46.7812H475.438V56H469.578ZM475.438 42.0547H479.578C483.055 42.0547 484.734 40.1016 484.734 37.25C484.734 34.4375 483.055 32.5234 479.578 32.5234H475.438V42.0547ZM494.5 56V27.7188H500.359V51.1562H512.547V56H494.5ZM521.805 56H515.477L525.281 27.7188H532.82L542.586 56H536.297L534.188 49.4766H523.953L521.805 56ZM525.438 44.9062H532.703L529.148 34.0859H528.953L525.438 44.9062ZM560.477 35.8047C560.242 33.5781 558.445 32.25 555.594 32.25C552.625 32.25 550.984 33.6172 550.945 35.4922C550.906 37.5234 553.055 38.4609 555.477 39.0078L558.016 39.6328C562.859 40.7266 566.492 43.1875 566.492 47.9141C566.492 53.1094 562.43 56.3906 555.555 56.3906C548.719 56.3906 544.344 53.2266 544.188 47.1719H549.891C550.086 50.0234 552.352 51.4688 555.477 51.4688C558.562 51.4688 560.555 50.0234 560.555 47.9141C560.555 46 558.797 45.1016 555.711 44.3203L552.625 43.5781C547.859 42.4062 544.93 40.0234 544.93 35.8828C544.93 30.7266 549.461 27.3281 555.633 27.3281C561.883 27.3281 566.023 30.8047 566.102 35.8047H560.477ZM570.32 56V27.7188H576.18V39.4375H588.445V27.7188H594.344V56H588.445V44.2812H576.18V56H570.32Z" fill="black"/>
<path d="M370.389 51.7766C369.706 51.5936 369.196 51.1903 368.859 50.5669C368.524 49.9426 368.448 49.289 368.631 48.606L371.216 38.9584L347.075 52.8959C346.462 53.2501 345.827 53.3393 345.172 53.1636C344.518 52.9886 344.014 52.5943 343.66 51.9809C343.306 51.3674 343.216 50.7333 343.39 50.0784C343.567 49.4242 343.962 48.92 344.575 48.5658L368.716 34.6283L358.983 32.0204C358.3 31.8374 357.786 31.4478 357.442 30.8517C357.099 30.257 357.018 29.6182 357.201 28.9352C357.385 28.2522 357.774 27.7386 358.37 27.3944C358.965 27.0511 359.604 26.9709 360.287 27.1539L375.911 31.3403C376.252 31.4318 376.541 31.5776 376.778 31.7777C377.013 31.9786 377.214 32.2234 377.381 32.5121C377.548 32.8008 377.659 33.0973 377.716 33.4015C377.77 33.7066 377.752 34.0299 377.661 34.3714L373.451 50.0807C373.284 50.7068 372.902 51.1915 372.308 51.5349C371.712 51.879 371.072 51.9596 370.389 51.7766Z" fill="black"/>
<path d="M35.3996 54.0495C35.3996 53.3423 35.6571 52.7454 36.1721 52.2587C36.6883 51.7732 37.3 51.5304 38.0071 51.5304L47.9949 51.5304L28.2843 31.8198C27.7835 31.3189 27.533 30.7291 27.533 30.0503C27.533 29.3738 27.7835 28.7851 28.2843 28.2843C28.7852 27.7834 29.3745 27.5324 30.0521 27.5312C30.7298 27.5324 31.319 27.7834 31.8199 28.2843L51.5305 47.9949L51.5305 37.9186C51.5305 37.2115 51.7738 36.6146 52.2606 36.1278C52.7461 35.6423 53.3424 35.3995 54.0496 35.3995C54.7567 35.3995 55.3536 35.6429 55.8403 36.1296C56.3258 36.6151 56.5686 37.2115 56.5686 37.9186L56.5686 54.0936C56.5686 54.4472 56.5026 54.7642 56.3706 55.0447C56.2375 55.324 56.053 55.5815 55.8173 55.8172C55.5816 56.0529 55.3241 56.2374 55.0448 56.3705C54.7643 56.5025 54.4473 56.5685 54.0937 56.5685L37.8303 56.5685C37.1821 56.5685 36.6152 56.3258 36.1297 55.8402C35.643 55.3535 35.3996 54.7566 35.3996 54.0495Z" fill="black"/>
</svg>
