<svg width="24" height="24" viewBox="0 0 24 24" fill="none" xmlns="http://www.w3.org/2000/svg">
<path d="M12.0238 0H11.9691C5.35877 0 0 5.36035 0 11.9727V12.0273C0 18.6397 5.35877 24 11.9691 24H12.0238C18.6342 24 23.9929 18.6397 23.9929 12.0273V11.9727C23.9929 5.36035 18.6342 0 12.0238 0Z" fill="white"/>
<path d="M17.7962 8.68243V10.9485C17.4002 10.9098 16.8858 10.8198 16.3167 10.6113C15.5736 10.3389 15.0205 9.96639 14.6582 9.67798V14.258L14.649 14.2437C14.6549 14.3345 14.6582 14.427 14.6582 14.5204C14.6582 16.7948 12.8081 18.6463 10.5335 18.6463C8.25883 18.6463 6.40869 16.7948 6.40869 14.5204C6.40869 12.2459 8.25883 10.3935 10.5335 10.3935C10.7562 10.3935 10.9748 10.4112 11.1883 10.4457V12.6789C10.9832 12.6058 10.7629 12.5663 10.5335 12.5663C9.45667 12.5663 8.57993 13.4424 8.57993 14.5204C8.57993 15.5983 9.45667 16.4745 10.5335 16.4745C11.6103 16.4745 12.487 15.5975 12.487 14.5204C12.487 14.48 12.4862 14.4396 12.4836 14.3993V5.49902H14.7473C14.7557 5.69073 14.7633 5.88413 14.7717 6.07584C14.7868 6.45338 14.9213 6.81577 15.1559 7.11259C15.4307 7.46154 15.8367 7.86682 16.4067 8.19054C16.9404 8.4924 17.4414 8.62273 17.7962 8.68411V8.68243Z" fill="#00C74B"/>
</svg>
