<svg width="24" height="24" viewBox="0 0 24 24" fill="none" xmlns="http://www.w3.org/2000/svg">
<path d="M23.9921 12.0004C23.9921 18.0612 19.5008 23.0717 13.6663 23.8848C13.1208 23.9605 12.5626 24 11.996 24C11.3421 24 10.6999 23.9479 10.0745 23.847C4.36266 22.9271 0 17.9729 0 12.0004C0 5.37294 5.37136 0 11.9969 0C18.6224 0 23.9938 5.37294 23.9938 12.0004H23.9921Z" fill="white"/>
<path d="M4.86552 5.29297L10.3983 12.6923L4.83105 18.7085H6.08438L10.959 13.4415L14.8971 18.7085H19.1614L13.3176 10.8929L18.4999 5.29297H17.2466L12.7578 10.1438L9.13067 5.29297H4.86635H4.86552ZM6.70809 6.21621H8.66666L17.3172 17.7853H15.3586L6.70809 6.21621Z" fill="#00C74B"/>
</svg>
