<svg width="24" height="24" viewBox="0 0 24 24" fill="none" xmlns="http://www.w3.org/2000/svg">
<path d="M23.9921 12.0004C23.9921 18.0612 19.5008 23.0717 13.6663 23.8848C13.1208 23.9605 12.5626 24 11.996 24C11.3421 24 10.6999 23.9479 10.0745 23.847C4.36266 22.9271 0 17.9729 0 12.0004C0 5.37294 5.37136 0 11.9969 0C18.6224 0 23.9938 5.37294 23.9938 12.0004H23.9921Z" fill="white"/>
<path d="M13.6662 9.63613V12.2503H16.8991L16.3872 15.7717H13.6662V23.8849C13.1206 23.9606 12.5625 24.0001 11.9959 24.0001C11.342 24.0001 10.6997 23.948 10.0743 23.8471V15.7717H7.09277V12.2503H10.0743V9.05175C10.0743 7.06737 11.6824 5.45801 13.667 5.45801V5.45969C13.6729 5.45969 13.6779 5.45801 13.6838 5.45801H16.8999V8.50352H14.7985C14.1739 8.50352 13.667 9.01055 13.667 9.63529L13.6662 9.63613Z" fill="#00C74B"/>
</svg>
