<svg width="24" height="24" viewBox="0 0 24 24" fill="none" xmlns="http://www.w3.org/2000/svg">
<path d="M24 12C24 5.37258 18.6274 0 12 0C5.37259 0 0 5.37258 0 12C0 18.6274 5.37259 24 12 24C18.6274 24 24 18.6274 24 12Z" fill="white"/>
<path d="M19.5562 9.5134C19.4618 8.60187 19.2586 7.59422 18.5106 7.06467C17.9313 6.65402 17.1699 6.63883 16.459 6.63968C14.9564 6.63968 13.4529 6.64221 11.9503 6.64305C10.505 6.64474 9.05969 6.64558 7.61439 6.64727C7.01064 6.64727 6.42375 6.60089 5.863 6.86229C5.38151 7.08659 5.00459 7.51327 4.77776 7.98801C4.46324 8.64825 4.39747 9.3962 4.35952 10.1264C4.28954 11.4562 4.29712 12.7894 4.3806 14.1183C4.44216 15.088 4.59816 16.1597 5.34779 16.7778C6.01225 17.3251 6.94992 17.3521 7.8117 17.3529C10.5471 17.3554 13.2834 17.358 16.0197 17.3597C16.3705 17.3605 16.7365 17.3538 17.094 17.315C17.7972 17.2391 18.4676 17.0375 18.9196 16.5164C19.3758 15.9911 19.493 15.26 19.5621 14.5677C19.7308 12.888 19.7291 11.1923 19.5562 9.5134ZM10.3684 14.3544V9.64495L14.4463 11.9992L10.3684 14.3544Z" fill="#00C74B"/>
</svg>
