<svg width="24" height="24" viewBox="0 0 24 24" fill="none" xmlns="http://www.w3.org/2000/svg">
<path d="M12.0238 0H11.9691C5.35877 0 0 5.36035 0 11.9727V12.0273C0 18.6397 5.35877 24 11.9691 24H12.0238C18.6342 24 23.9929 18.6397 23.9929 12.0273V11.9727C23.9929 5.36035 18.6342 0 12.0238 0Z" fill="white"/>
<path d="M15.7089 4.88281H8.28479C6.23375 4.88281 4.56519 6.55187 4.56519 8.60351V15.3975C4.56519 17.4491 6.23375 19.1182 8.28479 19.1182H15.7089C17.7599 19.1182 19.4285 17.4491 19.4285 15.3975V8.60351C19.4285 6.55187 17.7599 4.88281 15.7089 4.88281ZM5.87735 8.60351C5.87735 7.27583 6.9575 6.19536 8.28479 6.19536H15.7089C17.0362 6.19536 18.1163 7.27583 18.1163 8.60351V15.3975C18.1163 16.7252 17.0362 17.8056 15.7089 17.8056H8.28479C6.9575 17.8056 5.87735 16.7252 5.87735 15.3975V8.60351Z" fill="#00C74B"/>
<path d="M11.9967 15.4608C13.904 15.4608 15.4566 13.9086 15.4566 11.9999C15.4566 10.0912 13.9049 8.53906 11.9967 8.53906C10.0886 8.53906 8.53687 10.0912 8.53687 11.9999C8.53687 13.9086 10.0886 15.4608 11.9967 15.4608ZM11.9967 9.85245C13.1811 9.85245 14.1444 10.816 14.1444 12.0008C14.1444 13.1855 13.1811 14.1491 11.9967 14.1491C10.8123 14.1491 9.84903 13.1855 9.84903 12.0008C9.84903 10.816 10.8123 9.85245 11.9967 9.85245Z" fill="#00C74B"/>
<path d="M15.7775 9.09795C16.2912 9.09795 16.7099 8.67993 16.7099 8.16519C16.7099 7.65044 16.292 7.23242 15.7775 7.23242C15.2629 7.23242 14.845 7.65044 14.845 8.16519C14.845 8.67993 15.2629 9.09795 15.7775 9.09795Z" fill="#00C74B"/>
</svg>
