<svg width="1299" height="146" viewBox="0 0 1299 146" fill="none" xmlns="http://www.w3.org/2000/svg">
<path d="M41.9219 144L0.320312 2.59375H41.7266L61.6484 91.0703H62.8203L86.0625 2.59375H118.875L142.312 91.4609H143.484L163.406 2.59375H204.812L163.211 144H127.469L103.055 63.1406H101.883L77.4688 144H41.9219ZM236.062 144H195.828L242.898 2.59375H293.484L340.359 144H300.32L291.824 116.266H244.461L236.062 144ZM253.055 88.1406H283.23L268.68 40.6797H267.508L253.055 88.1406ZM332.352 32.6719V2.59375H454.227V32.6719H411.648V144H374.93V32.6719H332.352ZM469.266 144V2.59375H570.242V32.6719H506.375V58.2578H564.969V88.3359H506.375V113.922H570.047V144H469.266ZM589.773 144V2.59375H649.93C681.57 2.59375 702.273 20.5625 702.273 50.4453C702.273 69.9766 693.289 83.7461 678.055 90.9727L706.961 144H666.531L641.434 96.9297H626.883V144H589.773ZM626.883 67.8281H641.336C655.301 67.8281 663.504 62.75 663.406 50.4453C663.504 37.9453 655.301 32.3789 641.336 32.2812H626.883V67.8281ZM719.07 144V2.59375H779.617C811.844 2.59375 828.738 16.5586 828.836 38.1406C828.738 53.7656 817.801 65.6797 801.688 69V70.3672C819.559 70.9531 834.305 83.9414 834.305 104.156C834.305 127.203 815.555 144 784.695 144H719.07ZM756.18 114.117H775.125C788.504 114.215 795.047 109.039 795.047 99.4688C795.047 89.2148 787.625 83.2578 775.711 83.2578H756.18V114.117ZM756.18 60.0156H772.781C783.23 60.0156 790.555 54.9375 790.555 45.9531C790.555 36.9688 783.426 31.8906 773.367 31.8906H756.18V60.0156ZM984.5 73.2969C984.5 120.367 954.324 145.953 916.141 145.953C877.566 145.953 847.684 120.074 847.586 73.2969C847.684 26.2266 877.566 0.640625 916.141 0.640625C954.324 0.640625 984.5 26.2266 984.5 73.2969ZM885.867 73.2969C885.867 99.2734 896.609 113.434 916.141 113.531C935.477 113.434 946.316 99.2734 946.219 73.2969C946.316 47.2227 935.477 33.0625 916.141 33.0625C896.609 33.0625 885.867 47.2227 885.867 73.2969ZM1002.66 2.59375H1048.95L1082.55 84.8203H1084.3L1117.9 2.59375H1164.19V144H1127.86V60.7969H1126.69L1094.46 143.023H1072.2L1040.16 60.2109H1038.99V144H1002.66V2.59375ZM1183.33 144V2.59375H1243.88C1276.1 2.59375 1293 16.5586 1293.09 38.1406C1293 53.7656 1282.06 65.6797 1265.95 69V70.3672C1283.82 70.9531 1298.56 83.9414 1298.56 104.156C1298.56 127.203 1279.81 144 1248.95 144H1183.33ZM1220.44 114.117H1239.38C1252.76 114.215 1259.3 109.039 1259.3 99.4688C1259.3 89.2148 1251.88 83.2578 1239.97 83.2578H1220.44V114.117ZM1220.44 60.0156H1237.04C1247.49 60.0156 1254.81 54.9375 1254.81 45.9531C1254.81 36.9688 1247.68 31.8906 1237.62 31.8906H1220.44V60.0156Z" fill="black"/>
</svg>
