<svg width="4000" height="108" viewBox="0 0 4000 108" fill="none" xmlns="http://www.w3.org/2000/svg">
<rect width="2000" height="108" fill="#A1FF00"/>
<path d="M137.168 46.7559C136.875 43.9727 134.629 42.3125 131.064 42.3125C127.354 42.3125 125.303 44.0215 125.254 46.3652C125.205 48.9043 127.891 50.0762 130.918 50.7598L134.092 51.541C140.146 52.9082 144.688 55.9844 144.688 61.8926C144.688 68.3867 139.609 72.4883 131.016 72.4883C122.471 72.4883 117.002 68.5332 116.807 60.9648H123.936C124.18 64.5293 127.012 66.3359 130.918 66.3359C134.775 66.3359 137.266 64.5293 137.266 61.8926C137.266 59.5 135.068 58.377 131.211 57.4004L127.354 56.4727C121.396 55.0078 117.734 52.0293 117.734 46.8535C117.734 40.4082 123.398 36.1602 131.113 36.1602C138.926 36.1602 144.102 40.5059 144.199 46.7559H137.168ZM149.473 72V36.6484H163.34C171.396 36.6484 175.986 41.5801 175.986 48.5625C175.986 55.6426 171.299 60.4766 163.145 60.4766H156.797V72H149.473ZM156.797 54.5684H161.973C166.318 54.5684 168.418 52.127 168.418 48.5625C168.418 45.0469 166.318 42.6543 161.973 42.6543H156.797V54.5684ZM180.625 72V36.6484H187.949V65.9453H203.184V72H180.625ZM214.756 72H206.846L219.102 36.6484H228.525L240.732 72H232.871L230.234 63.8457H217.441L214.756 72ZM219.297 58.1328H228.379L223.936 44.6074H223.691L219.297 58.1328ZM263.096 46.7559C262.803 43.9727 260.557 42.3125 256.992 42.3125C253.281 42.3125 251.23 44.0215 251.182 46.3652C251.133 48.9043 253.818 50.0762 256.846 50.7598L260.02 51.541C266.074 52.9082 270.615 55.9844 270.615 61.8926C270.615 68.3867 265.537 72.4883 256.943 72.4883C248.398 72.4883 242.93 68.5332 242.734 60.9648H249.863C250.107 64.5293 252.939 66.3359 256.846 66.3359C260.703 66.3359 263.193 64.5293 263.193 61.8926C263.193 59.5 260.996 58.377 257.139 57.4004L253.281 56.4727C247.324 55.0078 243.662 52.0293 243.662 46.8535C243.662 40.4082 249.326 36.1602 257.041 36.1602C264.854 36.1602 270.029 40.5059 270.127 46.7559H263.096ZM275.4 72V36.6484H282.725V51.2969H298.057V36.6484H305.43V72H298.057V57.3516H282.725V72H275.4Z" fill="black"/>
<path d="M473.168 46.7559C472.875 43.9727 470.629 42.3125 467.064 42.3125C463.354 42.3125 461.303 44.0215 461.254 46.3652C461.205 48.9043 463.891 50.0762 466.918 50.7598L470.092 51.541C476.146 52.9082 480.688 55.9844 480.688 61.8926C480.688 68.3867 475.609 72.4883 467.016 72.4883C458.471 72.4883 453.002 68.5332 452.807 60.9648H459.936C460.18 64.5293 463.012 66.3359 466.918 66.3359C470.775 66.3359 473.266 64.5293 473.266 61.8926C473.266 59.5 471.068 58.377 467.211 57.4004L463.354 56.4727C457.396 55.0078 453.734 52.0293 453.734 46.8535C453.734 40.4082 459.398 36.1602 467.113 36.1602C474.926 36.1602 480.102 40.5059 480.199 46.7559H473.168ZM485.473 72V36.6484H499.34C507.396 36.6484 511.986 41.5801 511.986 48.5625C511.986 55.6426 507.299 60.4766 499.145 60.4766H492.797V72H485.473ZM492.797 54.5684H497.973C502.318 54.5684 504.418 52.127 504.418 48.5625C504.418 45.0469 502.318 42.6543 497.973 42.6543H492.797V54.5684ZM516.625 72V36.6484H523.949V65.9453H539.184V72H516.625ZM550.756 72H542.846L555.102 36.6484H564.525L576.732 72H568.871L566.234 63.8457H553.441L550.756 72ZM555.297 58.1328H564.379L559.936 44.6074H559.691L555.297 58.1328ZM599.096 46.7559C598.803 43.9727 596.557 42.3125 592.992 42.3125C589.281 42.3125 587.23 44.0215 587.182 46.3652C587.133 48.9043 589.818 50.0762 592.846 50.7598L596.02 51.541C602.074 52.9082 606.615 55.9844 606.615 61.8926C606.615 68.3867 601.537 72.4883 592.943 72.4883C584.398 72.4883 578.93 68.5332 578.734 60.9648H585.863C586.107 64.5293 588.939 66.3359 592.846 66.3359C596.703 66.3359 599.193 64.5293 599.193 61.8926C599.193 59.5 596.996 58.377 593.139 57.4004L589.281 56.4727C583.324 55.0078 579.662 52.0293 579.662 46.8535C579.662 40.4082 585.326 36.1602 593.041 36.1602C600.854 36.1602 606.029 40.5059 606.127 46.7559H599.096ZM611.4 72V36.6484H618.725V51.2969H634.057V36.6484H641.43V72H634.057V57.3516H618.725V72H611.4Z" fill="black"/>
<path d="M811.168 46.7559C810.875 43.9727 808.629 42.3125 805.064 42.3125C801.354 42.3125 799.303 44.0215 799.254 46.3652C799.205 48.9043 801.891 50.0762 804.918 50.7598L808.092 51.541C814.146 52.9082 818.688 55.9844 818.688 61.8926C818.688 68.3867 813.609 72.4883 805.016 72.4883C796.471 72.4883 791.002 68.5332 790.807 60.9648H797.936C798.18 64.5293 801.012 66.3359 804.918 66.3359C808.775 66.3359 811.266 64.5293 811.266 61.8926C811.266 59.5 809.068 58.377 805.211 57.4004L801.354 56.4727C795.396 55.0078 791.734 52.0293 791.734 46.8535C791.734 40.4082 797.398 36.1602 805.113 36.1602C812.926 36.1602 818.102 40.5059 818.199 46.7559H811.168ZM823.473 72V36.6484H837.34C845.396 36.6484 849.986 41.5801 849.986 48.5625C849.986 55.6426 845.299 60.4766 837.145 60.4766H830.797V72H823.473ZM830.797 54.5684H835.973C840.318 54.5684 842.418 52.127 842.418 48.5625C842.418 45.0469 840.318 42.6543 835.973 42.6543H830.797V54.5684ZM854.625 72V36.6484H861.949V65.9453H877.184V72H854.625ZM888.756 72H880.846L893.102 36.6484H902.525L914.732 72H906.871L904.234 63.8457H891.441L888.756 72ZM893.297 58.1328H902.379L897.936 44.6074H897.691L893.297 58.1328ZM937.096 46.7559C936.803 43.9727 934.557 42.3125 930.992 42.3125C927.281 42.3125 925.23 44.0215 925.182 46.3652C925.133 48.9043 927.818 50.0762 930.846 50.7598L934.02 51.541C940.074 52.9082 944.615 55.9844 944.615 61.8926C944.615 68.3867 939.537 72.4883 930.943 72.4883C922.398 72.4883 916.93 68.5332 916.734 60.9648H923.863C924.107 64.5293 926.939 66.3359 930.846 66.3359C934.703 66.3359 937.193 64.5293 937.193 61.8926C937.193 59.5 934.996 58.377 931.139 57.4004L927.281 56.4727C921.324 55.0078 917.662 52.0293 917.662 46.8535C917.662 40.4082 923.326 36.1602 931.041 36.1602C938.854 36.1602 944.029 40.5059 944.127 46.7559H937.096ZM949.4 72V36.6484H956.725V51.2969H972.057V36.6484H979.43V72H972.057V57.3516H956.725V72H949.4Z" fill="black"/>
<path d="M1147.17 46.7559C1146.88 43.9727 1144.63 42.3125 1141.06 42.3125C1137.35 42.3125 1135.3 44.0215 1135.25 46.3652C1135.21 48.9043 1137.89 50.0762 1140.92 50.7598L1144.09 51.541C1150.15 52.9082 1154.69 55.9844 1154.69 61.8926C1154.69 68.3867 1149.61 72.4883 1141.02 72.4883C1132.47 72.4883 1127 68.5332 1126.81 60.9648H1133.94C1134.18 64.5293 1137.01 66.3359 1140.92 66.3359C1144.78 66.3359 1147.27 64.5293 1147.27 61.8926C1147.27 59.5 1145.07 58.377 1141.21 57.4004L1137.35 56.4727C1131.4 55.0078 1127.73 52.0293 1127.73 46.8535C1127.73 40.4082 1133.4 36.1602 1141.11 36.1602C1148.93 36.1602 1154.1 40.5059 1154.2 46.7559H1147.17ZM1159.47 72V36.6484H1173.34C1181.4 36.6484 1185.99 41.5801 1185.99 48.5625C1185.99 55.6426 1181.3 60.4766 1173.14 60.4766H1166.8V72H1159.47ZM1166.8 54.5684H1171.97C1176.32 54.5684 1178.42 52.127 1178.42 48.5625C1178.42 45.0469 1176.32 42.6543 1171.97 42.6543H1166.8V54.5684ZM1190.62 72V36.6484H1197.95V65.9453H1213.18V72H1190.62ZM1224.76 72H1216.85L1229.1 36.6484H1238.53L1250.73 72H1242.87L1240.23 63.8457H1227.44L1224.76 72ZM1229.3 58.1328H1238.38L1233.94 44.6074H1233.69L1229.3 58.1328ZM1273.1 46.7559C1272.8 43.9727 1270.56 42.3125 1266.99 42.3125C1263.28 42.3125 1261.23 44.0215 1261.18 46.3652C1261.13 48.9043 1263.82 50.0762 1266.85 50.7598L1270.02 51.541C1276.07 52.9082 1280.62 55.9844 1280.62 61.8926C1280.62 68.3867 1275.54 72.4883 1266.94 72.4883C1258.4 72.4883 1252.93 68.5332 1252.73 60.9648H1259.86C1260.11 64.5293 1262.94 66.3359 1266.85 66.3359C1270.7 66.3359 1273.19 64.5293 1273.19 61.8926C1273.19 59.5 1271 58.377 1267.14 57.4004L1263.28 56.4727C1257.32 55.0078 1253.66 52.0293 1253.66 46.8535C1253.66 40.4082 1259.33 36.1602 1267.04 36.1602C1274.85 36.1602 1280.03 40.5059 1280.13 46.7559H1273.1ZM1285.4 72V36.6484H1292.72V51.2969H1308.06V36.6484H1315.43V72H1308.06V57.3516H1292.72V72H1285.4Z" fill="black"/>
<path d="M389.389 63.7766C388.706 63.5936 388.196 63.1903 387.859 62.5669C387.524 61.9426 387.448 61.289 387.631 60.606L390.216 50.9584L366.075 64.8959C365.462 65.2501 364.827 65.3393 364.172 65.1636C363.518 64.9886 363.014 64.5943 362.66 63.9809C362.306 63.3674 362.216 62.7333 362.39 62.0784C362.567 61.4242 362.962 60.92 363.575 60.5658L387.716 46.6283L377.983 44.0204C377.3 43.8374 376.786 43.4478 376.442 42.8517C376.099 42.257 376.018 41.6182 376.201 40.9352C376.385 40.2522 376.774 39.7386 377.37 39.3944C377.965 39.0511 378.604 38.9709 379.287 39.1539L394.911 43.3403C395.252 43.4318 395.541 43.5776 395.778 43.7777C396.013 43.9786 396.214 44.2234 396.381 44.5121C396.548 44.8008 396.659 45.0973 396.716 45.4015C396.77 45.7066 396.752 46.0299 396.661 46.3714L392.451 62.0807C392.284 62.7068 391.902 63.1915 391.308 63.5349C390.712 63.879 390.072 63.9596 389.389 63.7766Z" fill="black"/>
<path d="M35.3996 66.0495C35.3996 65.3423 35.6571 64.7454 36.1721 64.2587C36.6883 63.7732 37.3 63.5304 38.0071 63.5304L47.9949 63.5304L28.2843 43.8198C27.7835 43.3189 27.533 42.7291 27.533 42.0503C27.533 41.3738 27.7835 40.7851 28.2843 40.2843C28.7852 39.7834 29.3745 39.5324 30.0521 39.5312C30.7298 39.5324 31.319 39.7834 31.8199 40.2843L51.5305 59.9949L51.5305 49.9186C51.5305 49.2115 51.7738 48.6146 52.2606 48.1278C52.7461 47.6423 53.3424 47.3995 54.0496 47.3995C54.7567 47.3995 55.3536 47.6429 55.8403 48.1296C56.3258 48.6151 56.5686 49.2115 56.5686 49.9186L56.5686 66.0936C56.5686 66.4472 56.5026 66.7642 56.3706 67.0447C56.2375 67.324 56.053 67.5815 55.8173 67.8172C55.5816 68.0529 55.3241 68.2374 55.0448 68.3705C54.7643 68.5025 54.4473 68.5685 54.0937 68.5685L37.8303 68.5685C37.1821 68.5685 36.6152 68.3258 36.1297 67.8402C35.643 67.3535 35.3996 66.7566 35.3996 66.0495Z" fill="black"/>
<path d="M709.973 67.0495C709.973 66.3423 710.231 65.7454 710.746 65.2587C711.262 64.7732 711.874 64.5304 712.581 64.5304L722.569 64.5304L702.858 44.8198C702.357 44.3189 702.107 43.7291 702.107 43.0503C702.107 42.3738 702.357 41.7851 702.858 41.2843C703.359 40.7834 703.948 40.5324 704.626 40.5312C705.303 40.5324 705.893 40.7834 706.394 41.2843L726.104 60.9949L726.104 50.9186C726.104 50.2115 726.348 49.6146 726.834 49.1278C727.32 48.6423 727.916 48.3995 728.623 48.3995C729.33 48.3995 729.927 48.6429 730.414 49.1296C730.9 49.6151 731.142 50.2115 731.142 50.9186L731.142 67.0937C731.142 67.4472 731.076 67.7642 730.944 68.0447C730.811 68.324 730.627 68.5815 730.391 68.8172C730.155 69.0529 729.898 69.2374 729.619 69.3705C729.338 69.5025 729.021 69.5685 728.667 69.5685L712.404 69.5685C711.756 69.5685 711.189 69.3258 710.703 68.8402C710.217 68.3535 709.973 67.7566 709.973 67.0495Z" fill="black"/>
<path d="M1063.39 63.7766C1062.71 63.5936 1062.2 63.1903 1061.86 62.5669C1061.52 61.9426 1061.45 61.289 1061.63 60.606L1064.22 50.9584L1040.08 64.8959C1039.46 65.2501 1038.83 65.3393 1038.17 65.1636C1037.52 64.9886 1037.01 64.5943 1036.66 63.9809C1036.31 63.3674 1036.22 62.7333 1036.39 62.0784C1036.57 61.4242 1036.96 60.92 1037.58 60.5658L1061.72 46.6283L1051.98 44.0204C1051.3 43.8374 1050.79 43.4478 1050.44 42.8517C1050.1 42.257 1050.02 41.6182 1050.2 40.9352C1050.38 40.2522 1050.77 39.7386 1051.37 39.3944C1051.96 39.0511 1052.6 38.9709 1053.29 39.1539L1068.91 43.3403C1069.25 43.4318 1069.54 43.5776 1069.78 43.7777C1070.01 43.9786 1070.21 44.2234 1070.38 44.5121C1070.55 44.8008 1070.66 45.0973 1070.72 45.4015C1070.77 45.7066 1070.75 46.0299 1070.66 46.3714L1066.45 62.0807C1066.28 62.7068 1065.9 63.1915 1065.31 63.5349C1064.71 63.879 1064.07 63.9596 1063.39 63.7766Z" fill="black"/>
<path d="M1383.97 66.0495C1383.97 65.3423 1384.23 64.7454 1384.75 64.2587C1385.26 63.7732 1385.87 63.5304 1386.58 63.5304L1396.57 63.5304L1376.86 43.8198C1376.36 43.3189 1376.11 42.7291 1376.11 42.0503C1376.11 41.3738 1376.36 40.7851 1376.86 40.2843C1377.36 39.7834 1377.95 39.5324 1378.63 39.5312C1379.3 39.5324 1379.89 39.7834 1380.39 40.2843L1400.1 59.9949L1400.1 49.9186C1400.1 49.2115 1400.35 48.6146 1400.83 48.1278C1401.32 47.6423 1401.92 47.3995 1402.62 47.3995C1403.33 47.3995 1403.93 47.6429 1404.41 48.1296C1404.9 48.6151 1405.14 49.2115 1405.14 49.9186L1405.14 66.0936C1405.14 66.4472 1405.08 66.7642 1404.94 67.0447C1404.81 67.324 1404.63 67.5815 1404.39 67.8172C1404.16 68.0529 1403.9 68.2374 1403.62 68.3705C1403.34 68.5025 1403.02 68.5685 1402.67 68.5685L1386.4 68.5685C1385.76 68.5685 1385.19 68.3258 1384.7 67.8402C1384.22 67.3535 1383.97 66.7566 1383.97 66.0495Z" fill="black"/>
<path d="M1737.39 63.7766C1736.71 63.5936 1736.2 63.1903 1735.86 62.5669C1735.52 61.9426 1735.45 61.289 1735.63 60.606L1738.22 50.9584L1714.08 64.8959C1713.46 65.2501 1712.83 65.3393 1712.17 65.1636C1711.52 64.9886 1711.01 64.5943 1710.66 63.9809C1710.31 63.3674 1710.22 62.7333 1710.39 62.0784C1710.57 61.4242 1710.96 60.92 1711.58 60.5658L1735.72 46.6283L1725.98 44.0204C1725.3 43.8374 1724.79 43.4478 1724.44 42.8517C1724.1 42.257 1724.02 41.6182 1724.2 40.9352C1724.38 40.2522 1724.77 39.7386 1725.37 39.3944C1725.96 39.0511 1726.6 38.9709 1727.29 39.1539L1742.91 43.3403C1743.25 43.4318 1743.54 43.5776 1743.78 43.7777C1744.01 43.9786 1744.21 44.2234 1744.38 44.5121C1744.55 44.8008 1744.66 45.0973 1744.72 45.4015C1744.77 45.7066 1744.75 46.0299 1744.66 46.3714L1740.45 62.0807C1740.28 62.7068 1739.9 63.1915 1739.31 63.5349C1738.71 63.879 1738.07 63.9596 1737.39 63.7766Z" fill="black"/>
<path d="M1485.17 46.7559C1484.88 43.9727 1482.63 42.3125 1479.06 42.3125C1475.35 42.3125 1473.3 44.0215 1473.25 46.3652C1473.21 48.9043 1475.89 50.0762 1478.92 50.7598L1482.09 51.541C1488.15 52.9082 1492.69 55.9844 1492.69 61.8926C1492.69 68.3867 1487.61 72.4883 1479.02 72.4883C1470.47 72.4883 1465 68.5332 1464.81 60.9648H1471.94C1472.18 64.5293 1475.01 66.3359 1478.92 66.3359C1482.78 66.3359 1485.27 64.5293 1485.27 61.8926C1485.27 59.5 1483.07 58.377 1479.21 57.4004L1475.35 56.4727C1469.4 55.0078 1465.73 52.0293 1465.73 46.8535C1465.73 40.4082 1471.4 36.1602 1479.11 36.1602C1486.93 36.1602 1492.1 40.5059 1492.2 46.7559H1485.17ZM1497.47 72V36.6484H1511.34C1519.4 36.6484 1523.99 41.5801 1523.99 48.5625C1523.99 55.6426 1519.3 60.4766 1511.14 60.4766H1504.8V72H1497.47ZM1504.8 54.5684H1509.97C1514.32 54.5684 1516.42 52.127 1516.42 48.5625C1516.42 45.0469 1514.32 42.6543 1509.97 42.6543H1504.8V54.5684ZM1528.62 72V36.6484H1535.95V65.9453H1551.18V72H1528.62ZM1562.76 72H1554.85L1567.1 36.6484H1576.53L1588.73 72H1580.87L1578.23 63.8457H1565.44L1562.76 72ZM1567.3 58.1328H1576.38L1571.94 44.6074H1571.69L1567.3 58.1328ZM1611.1 46.7559C1610.8 43.9727 1608.56 42.3125 1604.99 42.3125C1601.28 42.3125 1599.23 44.0215 1599.18 46.3652C1599.13 48.9043 1601.82 50.0762 1604.85 50.7598L1608.02 51.541C1614.07 52.9082 1618.62 55.9844 1618.62 61.8926C1618.62 68.3867 1613.54 72.4883 1604.94 72.4883C1596.4 72.4883 1590.93 68.5332 1590.73 60.9648H1597.86C1598.11 64.5293 1600.94 66.3359 1604.85 66.3359C1608.7 66.3359 1611.19 64.5293 1611.19 61.8926C1611.19 59.5 1609 58.377 1605.14 57.4004L1601.28 56.4727C1595.32 55.0078 1591.66 52.0293 1591.66 46.8535C1591.66 40.4082 1597.33 36.1602 1605.04 36.1602C1612.85 36.1602 1618.03 40.5059 1618.13 46.7559H1611.1ZM1623.4 72V36.6484H1630.72V51.2969H1646.06V36.6484H1653.43V72H1646.06V57.3516H1630.72V72H1623.4Z" fill="black"/>
<path d="M1821.17 46.7559C1820.88 43.9727 1818.63 42.3125 1815.06 42.3125C1811.35 42.3125 1809.3 44.0215 1809.25 46.3652C1809.21 48.9043 1811.89 50.0762 1814.92 50.7598L1818.09 51.541C1824.15 52.9082 1828.69 55.9844 1828.69 61.8926C1828.69 68.3867 1823.61 72.4883 1815.02 72.4883C1806.47 72.4883 1801 68.5332 1800.81 60.9648H1807.94C1808.18 64.5293 1811.01 66.3359 1814.92 66.3359C1818.78 66.3359 1821.27 64.5293 1821.27 61.8926C1821.27 59.5 1819.07 58.377 1815.21 57.4004L1811.35 56.4727C1805.4 55.0078 1801.73 52.0293 1801.73 46.8535C1801.73 40.4082 1807.4 36.1602 1815.11 36.1602C1822.93 36.1602 1828.1 40.5059 1828.2 46.7559H1821.17ZM1833.47 72V36.6484H1847.34C1855.4 36.6484 1859.99 41.5801 1859.99 48.5625C1859.99 55.6426 1855.3 60.4766 1847.14 60.4766H1840.8V72H1833.47ZM1840.8 54.5684H1845.97C1850.32 54.5684 1852.42 52.127 1852.42 48.5625C1852.42 45.0469 1850.32 42.6543 1845.97 42.6543H1840.8V54.5684ZM1864.62 72V36.6484H1871.95V65.9453H1887.18V72H1864.62ZM1898.76 72H1890.85L1903.1 36.6484H1912.53L1924.73 72H1916.87L1914.23 63.8457H1901.44L1898.76 72ZM1903.3 58.1328H1912.38L1907.94 44.6074H1907.69L1903.3 58.1328ZM1947.1 46.7559C1946.8 43.9727 1944.56 42.3125 1940.99 42.3125C1937.28 42.3125 1935.23 44.0215 1935.18 46.3652C1935.13 48.9043 1937.82 50.0762 1940.85 50.7598L1944.02 51.541C1950.07 52.9082 1954.62 55.9844 1954.62 61.8926C1954.62 68.3867 1949.54 72.4883 1940.94 72.4883C1932.4 72.4883 1926.93 68.5332 1926.73 60.9648H1933.86C1934.11 64.5293 1936.94 66.3359 1940.85 66.3359C1944.7 66.3359 1947.19 64.5293 1947.19 61.8926C1947.19 59.5 1945 58.377 1941.14 57.4004L1937.28 56.4727C1931.32 55.0078 1927.66 52.0293 1927.66 46.8535C1927.66 40.4082 1933.33 36.1602 1941.04 36.1602C1948.85 36.1602 1954.03 40.5059 1954.13 46.7559H1947.1ZM1959.4 72V36.6484H1966.72V51.2969H1982.06V36.6484H1989.43V72H1982.06V57.3516H1966.72V72H1959.4Z" fill="black"/>
<rect x="2000" width="2000" height="108" fill="#A1FF00"/>
<path d="M2137.17 46.7559C2136.88 43.9727 2134.63 42.3125 2131.06 42.3125C2127.35 42.3125 2125.3 44.0215 2125.25 46.3652C2125.21 48.9043 2127.89 50.0762 2130.92 50.7598L2134.09 51.541C2140.15 52.9082 2144.69 55.9844 2144.69 61.8926C2144.69 68.3867 2139.61 72.4883 2131.02 72.4883C2122.47 72.4883 2117 68.5332 2116.81 60.9648H2123.94C2124.18 64.5293 2127.01 66.3359 2130.92 66.3359C2134.78 66.3359 2137.27 64.5293 2137.27 61.8926C2137.27 59.5 2135.07 58.377 2131.21 57.4004L2127.35 56.4727C2121.4 55.0078 2117.73 52.0293 2117.73 46.8535C2117.73 40.4082 2123.4 36.1602 2131.11 36.1602C2138.93 36.1602 2144.1 40.5059 2144.2 46.7559H2137.17ZM2149.47 72V36.6484H2163.34C2171.4 36.6484 2175.99 41.5801 2175.99 48.5625C2175.99 55.6426 2171.3 60.4766 2163.14 60.4766H2156.8V72H2149.47ZM2156.8 54.5684H2161.97C2166.32 54.5684 2168.42 52.127 2168.42 48.5625C2168.42 45.0469 2166.32 42.6543 2161.97 42.6543H2156.8V54.5684ZM2180.62 72V36.6484H2187.95V65.9453H2203.18V72H2180.62ZM2214.76 72H2206.85L2219.1 36.6484H2228.53L2240.73 72H2232.87L2230.23 63.8457H2217.44L2214.76 72ZM2219.3 58.1328H2228.38L2223.94 44.6074H2223.69L2219.3 58.1328ZM2263.1 46.7559C2262.8 43.9727 2260.56 42.3125 2256.99 42.3125C2253.28 42.3125 2251.23 44.0215 2251.18 46.3652C2251.13 48.9043 2253.82 50.0762 2256.85 50.7598L2260.02 51.541C2266.07 52.9082 2270.62 55.9844 2270.62 61.8926C2270.62 68.3867 2265.54 72.4883 2256.94 72.4883C2248.4 72.4883 2242.93 68.5332 2242.73 60.9648H2249.86C2250.11 64.5293 2252.94 66.3359 2256.85 66.3359C2260.7 66.3359 2263.19 64.5293 2263.19 61.8926C2263.19 59.5 2261 58.377 2257.14 57.4004L2253.28 56.4727C2247.32 55.0078 2243.66 52.0293 2243.66 46.8535C2243.66 40.4082 2249.33 36.1602 2257.04 36.1602C2264.85 36.1602 2270.03 40.5059 2270.13 46.7559H2263.1ZM2275.4 72V36.6484H2282.72V51.2969H2298.06V36.6484H2305.43V72H2298.06V57.3516H2282.72V72H2275.4Z" fill="black"/>
<path d="M2473.17 46.7559C2472.88 43.9727 2470.63 42.3125 2467.06 42.3125C2463.35 42.3125 2461.3 44.0215 2461.25 46.3652C2461.21 48.9043 2463.89 50.0762 2466.92 50.7598L2470.09 51.541C2476.15 52.9082 2480.69 55.9844 2480.69 61.8926C2480.69 68.3867 2475.61 72.4883 2467.02 72.4883C2458.47 72.4883 2453 68.5332 2452.81 60.9648H2459.94C2460.18 64.5293 2463.01 66.3359 2466.92 66.3359C2470.78 66.3359 2473.27 64.5293 2473.27 61.8926C2473.27 59.5 2471.07 58.377 2467.21 57.4004L2463.35 56.4727C2457.4 55.0078 2453.73 52.0293 2453.73 46.8535C2453.73 40.4082 2459.4 36.1602 2467.11 36.1602C2474.93 36.1602 2480.1 40.5059 2480.2 46.7559H2473.17ZM2485.47 72V36.6484H2499.34C2507.4 36.6484 2511.99 41.5801 2511.99 48.5625C2511.99 55.6426 2507.3 60.4766 2499.14 60.4766H2492.8V72H2485.47ZM2492.8 54.5684H2497.97C2502.32 54.5684 2504.42 52.127 2504.42 48.5625C2504.42 45.0469 2502.32 42.6543 2497.97 42.6543H2492.8V54.5684ZM2516.62 72V36.6484H2523.95V65.9453H2539.18V72H2516.62ZM2550.76 72H2542.85L2555.1 36.6484H2564.53L2576.73 72H2568.87L2566.23 63.8457H2553.44L2550.76 72ZM2555.3 58.1328H2564.38L2559.94 44.6074H2559.69L2555.3 58.1328ZM2599.1 46.7559C2598.8 43.9727 2596.56 42.3125 2592.99 42.3125C2589.28 42.3125 2587.23 44.0215 2587.18 46.3652C2587.13 48.9043 2589.82 50.0762 2592.85 50.7598L2596.02 51.541C2602.07 52.9082 2606.62 55.9844 2606.62 61.8926C2606.62 68.3867 2601.54 72.4883 2592.94 72.4883C2584.4 72.4883 2578.93 68.5332 2578.73 60.9648H2585.86C2586.11 64.5293 2588.94 66.3359 2592.85 66.3359C2596.7 66.3359 2599.19 64.5293 2599.19 61.8926C2599.19 59.5 2597 58.377 2593.14 57.4004L2589.28 56.4727C2583.32 55.0078 2579.66 52.0293 2579.66 46.8535C2579.66 40.4082 2585.33 36.1602 2593.04 36.1602C2600.85 36.1602 2606.03 40.5059 2606.13 46.7559H2599.1ZM2611.4 72V36.6484H2618.72V51.2969H2634.06V36.6484H2641.43V72H2634.06V57.3516H2618.72V72H2611.4Z" fill="black"/>
<path d="M2811.17 46.7559C2810.88 43.9727 2808.63 42.3125 2805.06 42.3125C2801.35 42.3125 2799.3 44.0215 2799.25 46.3652C2799.21 48.9043 2801.89 50.0762 2804.92 50.7598L2808.09 51.541C2814.15 52.9082 2818.69 55.9844 2818.69 61.8926C2818.69 68.3867 2813.61 72.4883 2805.02 72.4883C2796.47 72.4883 2791 68.5332 2790.81 60.9648H2797.94C2798.18 64.5293 2801.01 66.3359 2804.92 66.3359C2808.78 66.3359 2811.27 64.5293 2811.27 61.8926C2811.27 59.5 2809.07 58.377 2805.21 57.4004L2801.35 56.4727C2795.4 55.0078 2791.73 52.0293 2791.73 46.8535C2791.73 40.4082 2797.4 36.1602 2805.11 36.1602C2812.93 36.1602 2818.1 40.5059 2818.2 46.7559H2811.17ZM2823.47 72V36.6484H2837.34C2845.4 36.6484 2849.99 41.5801 2849.99 48.5625C2849.99 55.6426 2845.3 60.4766 2837.14 60.4766H2830.8V72H2823.47ZM2830.8 54.5684H2835.97C2840.32 54.5684 2842.42 52.127 2842.42 48.5625C2842.42 45.0469 2840.32 42.6543 2835.97 42.6543H2830.8V54.5684ZM2854.62 72V36.6484H2861.95V65.9453H2877.18V72H2854.62ZM2888.76 72H2880.85L2893.1 36.6484H2902.53L2914.73 72H2906.87L2904.23 63.8457H2891.44L2888.76 72ZM2893.3 58.1328H2902.38L2897.94 44.6074H2897.69L2893.3 58.1328ZM2937.1 46.7559C2936.8 43.9727 2934.56 42.3125 2930.99 42.3125C2927.28 42.3125 2925.23 44.0215 2925.18 46.3652C2925.13 48.9043 2927.82 50.0762 2930.85 50.7598L2934.02 51.541C2940.07 52.9082 2944.62 55.9844 2944.62 61.8926C2944.62 68.3867 2939.54 72.4883 2930.94 72.4883C2922.4 72.4883 2916.93 68.5332 2916.73 60.9648H2923.86C2924.11 64.5293 2926.94 66.3359 2930.85 66.3359C2934.7 66.3359 2937.19 64.5293 2937.19 61.8926C2937.19 59.5 2935 58.377 2931.14 57.4004L2927.28 56.4727C2921.32 55.0078 2917.66 52.0293 2917.66 46.8535C2917.66 40.4082 2923.33 36.1602 2931.04 36.1602C2938.85 36.1602 2944.03 40.5059 2944.13 46.7559H2937.1ZM2949.4 72V36.6484H2956.72V51.2969H2972.06V36.6484H2979.43V72H2972.06V57.3516H2956.72V72H2949.4Z" fill="black"/>
<path d="M3147.17 46.7559C3146.88 43.9727 3144.63 42.3125 3141.06 42.3125C3137.35 42.3125 3135.3 44.0215 3135.25 46.3652C3135.21 48.9043 3137.89 50.0762 3140.92 50.7598L3144.09 51.541C3150.15 52.9082 3154.69 55.9844 3154.69 61.8926C3154.69 68.3867 3149.61 72.4883 3141.02 72.4883C3132.47 72.4883 3127 68.5332 3126.81 60.9648H3133.94C3134.18 64.5293 3137.01 66.3359 3140.92 66.3359C3144.78 66.3359 3147.27 64.5293 3147.27 61.8926C3147.27 59.5 3145.07 58.377 3141.21 57.4004L3137.35 56.4727C3131.4 55.0078 3127.73 52.0293 3127.73 46.8535C3127.73 40.4082 3133.4 36.1602 3141.11 36.1602C3148.93 36.1602 3154.1 40.5059 3154.2 46.7559H3147.17ZM3159.47 72V36.6484H3173.34C3181.4 36.6484 3185.99 41.5801 3185.99 48.5625C3185.99 55.6426 3181.3 60.4766 3173.14 60.4766H3166.8V72H3159.47ZM3166.8 54.5684H3171.97C3176.32 54.5684 3178.42 52.127 3178.42 48.5625C3178.42 45.0469 3176.32 42.6543 3171.97 42.6543H3166.8V54.5684ZM3190.62 72V36.6484H3197.95V65.9453H3213.18V72H3190.62ZM3224.76 72H3216.85L3229.1 36.6484H3238.53L3250.73 72H3242.87L3240.23 63.8457H3227.44L3224.76 72ZM3229.3 58.1328H3238.38L3233.94 44.6074H3233.69L3229.3 58.1328ZM3273.1 46.7559C3272.8 43.9727 3270.56 42.3125 3266.99 42.3125C3263.28 42.3125 3261.23 44.0215 3261.18 46.3652C3261.13 48.9043 3263.82 50.0762 3266.85 50.7598L3270.02 51.541C3276.07 52.9082 3280.62 55.9844 3280.62 61.8926C3280.62 68.3867 3275.54 72.4883 3266.94 72.4883C3258.4 72.4883 3252.93 68.5332 3252.73 60.9648H3259.86C3260.11 64.5293 3262.94 66.3359 3266.85 66.3359C3270.7 66.3359 3273.19 64.5293 3273.19 61.8926C3273.19 59.5 3271 58.377 3267.14 57.4004L3263.28 56.4727C3257.32 55.0078 3253.66 52.0293 3253.66 46.8535C3253.66 40.4082 3259.33 36.1602 3267.04 36.1602C3274.85 36.1602 3280.03 40.5059 3280.13 46.7559H3273.1ZM3285.4 72V36.6484H3292.72V51.2969H3308.06V36.6484H3315.43V72H3308.06V57.3516H3292.72V72H3285.4Z" fill="black"/>
<path d="M2389.39 63.7766C2388.71 63.5936 2388.2 63.1903 2387.86 62.5669C2387.52 61.9426 2387.45 61.289 2387.63 60.606L2390.22 50.9584L2366.08 64.8959C2365.46 65.2501 2364.83 65.3393 2364.17 65.1636C2363.52 64.9886 2363.01 64.5943 2362.66 63.9809C2362.31 63.3674 2362.22 62.7333 2362.39 62.0784C2362.57 61.4242 2362.96 60.92 2363.58 60.5658L2387.72 46.6283L2377.98 44.0204C2377.3 43.8374 2376.79 43.4478 2376.44 42.8517C2376.1 42.257 2376.02 41.6182 2376.2 40.9352C2376.38 40.2522 2376.77 39.7386 2377.37 39.3944C2377.96 39.0511 2378.6 38.9709 2379.29 39.1539L2394.91 43.3403C2395.25 43.4318 2395.54 43.5776 2395.78 43.7777C2396.01 43.9786 2396.21 44.2234 2396.38 44.5121C2396.55 44.8008 2396.66 45.0973 2396.72 45.4015C2396.77 45.7066 2396.75 46.0299 2396.66 46.3714L2392.45 62.0807C2392.28 62.7068 2391.9 63.1915 2391.31 63.5349C2390.71 63.879 2390.07 63.9596 2389.39 63.7766Z" fill="black"/>
<path d="M2035.4 66.0495C2035.4 65.3423 2035.66 64.7454 2036.17 64.2587C2036.69 63.7732 2037.3 63.5304 2038.01 63.5304L2047.99 63.5304L2028.28 43.8198C2027.78 43.3189 2027.53 42.7291 2027.53 42.0503C2027.53 41.3738 2027.78 40.7851 2028.28 40.2843C2028.79 39.7834 2029.37 39.5324 2030.05 39.5312C2030.73 39.5324 2031.32 39.7834 2031.82 40.2843L2051.53 59.9949L2051.53 49.9186C2051.53 49.2115 2051.77 48.6146 2052.26 48.1278C2052.75 47.6423 2053.34 47.3995 2054.05 47.3995C2054.76 47.3995 2055.35 47.6429 2055.84 48.1296C2056.33 48.6151 2056.57 49.2115 2056.57 49.9186L2056.57 66.0936C2056.57 66.4472 2056.5 66.7642 2056.37 67.0447C2056.24 67.324 2056.05 67.5815 2055.82 67.8172C2055.58 68.0529 2055.32 68.2374 2055.04 68.3705C2054.76 68.5025 2054.45 68.5685 2054.09 68.5685L2037.83 68.5685C2037.18 68.5685 2036.62 68.3258 2036.13 67.8402C2035.64 67.3535 2035.4 66.7566 2035.4 66.0495Z" fill="black"/>
<path d="M2709.97 67.0495C2709.97 66.3423 2710.23 65.7454 2710.75 65.2587C2711.26 64.7732 2711.87 64.5304 2712.58 64.5304L2722.57 64.5304L2702.86 44.8198C2702.36 44.3189 2702.11 43.7291 2702.11 43.0503C2702.11 42.3738 2702.36 41.7851 2702.86 41.2843C2703.36 40.7834 2703.95 40.5324 2704.63 40.5312C2705.3 40.5324 2705.89 40.7834 2706.39 41.2843L2726.1 60.9949L2726.1 50.9186C2726.1 50.2115 2726.35 49.6146 2726.83 49.1278C2727.32 48.6423 2727.92 48.3995 2728.62 48.3995C2729.33 48.3995 2729.93 48.6429 2730.41 49.1296C2730.9 49.6151 2731.14 50.2115 2731.14 50.9186L2731.14 67.0937C2731.14 67.4472 2731.08 67.7642 2730.94 68.0447C2730.81 68.324 2730.63 68.5815 2730.39 68.8172C2730.16 69.0529 2729.9 69.2374 2729.62 69.3705C2729.34 69.5025 2729.02 69.5685 2728.67 69.5685L2712.4 69.5685C2711.76 69.5685 2711.19 69.3258 2710.7 68.8402C2710.22 68.3535 2709.97 67.7566 2709.97 67.0495Z" fill="black"/>
<path d="M3063.39 63.7766C3062.71 63.5936 3062.2 63.1903 3061.86 62.5669C3061.52 61.9426 3061.45 61.289 3061.63 60.606L3064.22 50.9584L3040.08 64.8959C3039.46 65.2501 3038.83 65.3393 3038.17 65.1636C3037.52 64.9886 3037.01 64.5943 3036.66 63.9809C3036.31 63.3674 3036.22 62.7333 3036.39 62.0784C3036.57 61.4242 3036.96 60.92 3037.58 60.5658L3061.72 46.6283L3051.98 44.0204C3051.3 43.8374 3050.79 43.4478 3050.44 42.8517C3050.1 42.257 3050.02 41.6182 3050.2 40.9352C3050.38 40.2522 3050.77 39.7386 3051.37 39.3944C3051.96 39.0511 3052.6 38.9709 3053.29 39.1539L3068.91 43.3403C3069.25 43.4318 3069.54 43.5776 3069.78 43.7777C3070.01 43.9786 3070.21 44.2234 3070.38 44.5121C3070.55 44.8008 3070.66 45.0973 3070.72 45.4015C3070.77 45.7066 3070.75 46.0299 3070.66 46.3714L3066.45 62.0807C3066.28 62.7068 3065.9 63.1915 3065.31 63.5349C3064.71 63.879 3064.07 63.9596 3063.39 63.7766Z" fill="black"/>
<path d="M3383.97 66.0495C3383.97 65.3423 3384.23 64.7454 3384.75 64.2587C3385.26 63.7732 3385.87 63.5304 3386.58 63.5304L3396.57 63.5304L3376.86 43.8198C3376.36 43.3189 3376.11 42.7291 3376.11 42.0503C3376.11 41.3738 3376.36 40.7851 3376.86 40.2843C3377.36 39.7834 3377.95 39.5324 3378.63 39.5312C3379.3 39.5324 3379.89 39.7834 3380.39 40.2843L3400.1 59.9949L3400.1 49.9186C3400.1 49.2115 3400.35 48.6146 3400.83 48.1278C3401.32 47.6423 3401.92 47.3995 3402.62 47.3995C3403.33 47.3995 3403.93 47.6429 3404.41 48.1296C3404.9 48.6151 3405.14 49.2115 3405.14 49.9186L3405.14 66.0936C3405.14 66.4472 3405.08 66.7642 3404.94 67.0447C3404.81 67.324 3404.63 67.5815 3404.39 67.8172C3404.16 68.0529 3403.9 68.2374 3403.62 68.3705C3403.34 68.5025 3403.02 68.5685 3402.67 68.5685L3386.4 68.5685C3385.76 68.5685 3385.19 68.3258 3384.7 67.8402C3384.22 67.3535 3383.97 66.7566 3383.97 66.0495Z" fill="black"/>
<path d="M3737.39 63.7766C3736.71 63.5936 3736.2 63.1903 3735.86 62.5669C3735.52 61.9426 3735.45 61.289 3735.63 60.606L3738.22 50.9584L3714.08 64.8959C3713.46 65.2501 3712.83 65.3393 3712.17 65.1636C3711.52 64.9886 3711.01 64.5943 3710.66 63.9809C3710.31 63.3674 3710.22 62.7333 3710.39 62.0784C3710.57 61.4242 3710.96 60.92 3711.58 60.5658L3735.72 46.6283L3725.98 44.0204C3725.3 43.8374 3724.79 43.4478 3724.44 42.8517C3724.1 42.257 3724.02 41.6182 3724.2 40.9352C3724.38 40.2522 3724.77 39.7386 3725.37 39.3944C3725.96 39.0511 3726.6 38.9709 3727.29 39.1539L3742.91 43.3403C3743.25 43.4318 3743.54 43.5776 3743.78 43.7777C3744.01 43.9786 3744.21 44.2234 3744.38 44.5121C3744.55 44.8008 3744.66 45.0973 3744.72 45.4015C3744.77 45.7066 3744.75 46.0299 3744.66 46.3714L3740.45 62.0807C3740.28 62.7068 3739.9 63.1915 3739.31 63.5349C3738.71 63.879 3738.07 63.9596 3737.39 63.7766Z" fill="black"/>
<path d="M3485.17 46.7559C3484.88 43.9727 3482.63 42.3125 3479.06 42.3125C3475.35 42.3125 3473.3 44.0215 3473.25 46.3652C3473.21 48.9043 3475.89 50.0762 3478.92 50.7598L3482.09 51.541C3488.15 52.9082 3492.69 55.9844 3492.69 61.8926C3492.69 68.3867 3487.61 72.4883 3479.02 72.4883C3470.47 72.4883 3465 68.5332 3464.81 60.9648H3471.94C3472.18 64.5293 3475.01 66.3359 3478.92 66.3359C3482.78 66.3359 3485.27 64.5293 3485.27 61.8926C3485.27 59.5 3483.07 58.377 3479.21 57.4004L3475.35 56.4727C3469.4 55.0078 3465.73 52.0293 3465.73 46.8535C3465.73 40.4082 3471.4 36.1602 3479.11 36.1602C3486.93 36.1602 3492.1 40.5059 3492.2 46.7559H3485.17ZM3497.47 72V36.6484H3511.34C3519.4 36.6484 3523.99 41.5801 3523.99 48.5625C3523.99 55.6426 3519.3 60.4766 3511.14 60.4766H3504.8V72H3497.47ZM3504.8 54.5684H3509.97C3514.32 54.5684 3516.42 52.127 3516.42 48.5625C3516.42 45.0469 3514.32 42.6543 3509.97 42.6543H3504.8V54.5684ZM3528.62 72V36.6484H3535.95V65.9453H3551.18V72H3528.62ZM3562.76 72H3554.85L3567.1 36.6484H3576.53L3588.73 72H3580.87L3578.23 63.8457H3565.44L3562.76 72ZM3567.3 58.1328H3576.38L3571.94 44.6074H3571.69L3567.3 58.1328ZM3611.1 46.7559C3610.8 43.9727 3608.56 42.3125 3604.99 42.3125C3601.28 42.3125 3599.23 44.0215 3599.18 46.3652C3599.13 48.9043 3601.82 50.0762 3604.85 50.7598L3608.02 51.541C3614.07 52.9082 3618.62 55.9844 3618.62 61.8926C3618.62 68.3867 3613.54 72.4883 3604.94 72.4883C3596.4 72.4883 3590.93 68.5332 3590.73 60.9648H3597.86C3598.11 64.5293 3600.94 66.3359 3604.85 66.3359C3608.7 66.3359 3611.19 64.5293 3611.19 61.8926C3611.19 59.5 3609 58.377 3605.14 57.4004L3601.28 56.4727C3595.32 55.0078 3591.66 52.0293 3591.66 46.8535C3591.66 40.4082 3597.33 36.1602 3605.04 36.1602C3612.85 36.1602 3618.03 40.5059 3618.13 46.7559H3611.1ZM3623.4 72V36.6484H3630.72V51.2969H3646.06V36.6484H3653.43V72H3646.06V57.3516H3630.72V72H3623.4Z" fill="black"/>
<path d="M3821.17 46.7559C3820.88 43.9727 3818.63 42.3125 3815.06 42.3125C3811.35 42.3125 3809.3 44.0215 3809.25 46.3652C3809.21 48.9043 3811.89 50.0762 3814.92 50.7598L3818.09 51.541C3824.15 52.9082 3828.69 55.9844 3828.69 61.8926C3828.69 68.3867 3823.61 72.4883 3815.02 72.4883C3806.47 72.4883 3801 68.5332 3800.81 60.9648H3807.94C3808.18 64.5293 3811.01 66.3359 3814.92 66.3359C3818.78 66.3359 3821.27 64.5293 3821.27 61.8926C3821.27 59.5 3819.07 58.377 3815.21 57.4004L3811.35 56.4727C3805.4 55.0078 3801.73 52.0293 3801.73 46.8535C3801.73 40.4082 3807.4 36.1602 3815.11 36.1602C3822.93 36.1602 3828.1 40.5059 3828.2 46.7559H3821.17ZM3833.47 72V36.6484H3847.34C3855.4 36.6484 3859.99 41.5801 3859.99 48.5625C3859.99 55.6426 3855.3 60.4766 3847.14 60.4766H3840.8V72H3833.47ZM3840.8 54.5684H3845.97C3850.32 54.5684 3852.42 52.127 3852.42 48.5625C3852.42 45.0469 3850.32 42.6543 3845.97 42.6543H3840.8V54.5684ZM3864.62 72V36.6484H3871.95V65.9453H3887.18V72H3864.62ZM3898.76 72H3890.85L3903.1 36.6484H3912.53L3924.73 72H3916.87L3914.23 63.8457H3901.44L3898.76 72ZM3903.3 58.1328H3912.38L3907.94 44.6074H3907.69L3903.3 58.1328ZM3947.1 46.7559C3946.8 43.9727 3944.56 42.3125 3940.99 42.3125C3937.28 42.3125 3935.23 44.0215 3935.18 46.3652C3935.13 48.9043 3937.82 50.0762 3940.85 50.7598L3944.02 51.541C3950.07 52.9082 3954.62 55.9844 3954.62 61.8926C3954.62 68.3867 3949.54 72.4883 3940.94 72.4883C3932.4 72.4883 3926.93 68.5332 3926.73 60.9648H3933.86C3934.11 64.5293 3936.94 66.3359 3940.85 66.3359C3944.7 66.3359 3947.19 64.5293 3947.19 61.8926C3947.19 59.5 3945 58.377 3941.14 57.4004L3937.28 56.4727C3931.32 55.0078 3927.66 52.0293 3927.66 46.8535C3927.66 40.4082 3933.33 36.1602 3941.04 36.1602C3948.85 36.1602 3954.03 40.5059 3954.13 46.7559H3947.1ZM3959.4 72V36.6484H3966.72V51.2969H3982.06V36.6484H3989.43V72H3982.06V57.3516H3966.72V72H3959.4Z" fill="black"/>
</svg>
